inDegrees=yes
name=ik_S55_A12_T01
DataType=double
version=3
OpenSimVersion=4.3-2021-08-27-4bc7ad9
endheader
time	pelvis_tilt	pelvis_list	pelvis_rotation	pelvis_tx	pelvis_ty	pelvis_tz	hip_flexion_r	hip_adduction_r	hip_rotation_r	knee_angle_r	knee_angle_r_beta	ankle_angle_r	subtalar_angle_r	mtp_angle_r	hip_flexion_l	hip_adduction_l	hip_rotation_l	knee_angle_l	knee_angle_l_beta	ankle_angle_l	subtalar_angle_l	mtp_angle_l	lumbar_extension	lumbar_bending	lumbar_rotation	arm_flex_r	arm_add_r	arm_rot_r	elbow_flex_r	pro_sup_r	wrist_flex_r	wrist_dev_r	arm_flex_l	arm_add_l	arm_rot_l	elbow_flex_l	pro_sup_l	wrist_flex_l	wrist_dev_l
17.15999999999972	0.09464141746080701	1.477432705947612	36.5471448515674	0	0.9399999999999999	0	34.81761387867193	-9.735873840496152	-9.289092506729522	39.53337184661824	0.689987503138719	0	0	0	34.81761387867193	-9.735873840496152	-9.289092506729522	39.53337184661824	0.689987503138719	0	0	0	1.071254961993748	1.082559207930986	5.610900512772007	0.07608068663049719	-6.40039058707605	-5.712165715685308	9.498772088168856	106.1360866743838	0	0	69.24475520501777	-29.35412754943607	-2.443384908038868	44.24225136739388	97.81839183196779	0	0
17.17999999999972	0.1147922303638251	1.45549394395444	36.8405080763632	0	0.9399999999999999	0	34.90869121934367	-9.741385517996678	-9.300140826624519	39.65832274451495	0.6921683077103399	0	0	0	34.90869121934367	-9.741385517996678	-9.300140826624519	39.65832274451495	0.6921683077103399	0	0	0	1.075307158103875	1.050341038793262	5.404517367597906	-0.00989928504012362	-6.390663276046943	-5.805683983157873	9.502670837797904	106.2865884184036	0	0	66.26585037741414	-29.76851087295207	-5.208866658946324	44.05959819068772	97.93306702038075	0	0
17.19999999999972	0.1716517057458485	1.466107261105393	37.5272441644092	0	0.9399999999999999	0	35.053585540081	-9.749930121198378	-9.31746745846543	39.85844707220485	0.6956611361418685	0	0	0	35.053585540081	-9.749930121198378	-9.31746745846543	39.85844707220485	0.6956611361418685	0	0	0	1.130823787835917	1.019454505719708	4.926203145768132	-0.1919814535577442	-6.350508231202391	-5.961698532939444	9.506518827955411	106.3868300498677	0	0	59.7046744600494	-30.53590119170509	-10.86701850852273	42.92088089675435	99.58098427835368	0	0
17.21999999999972	0.2023110935510689	1.481065518307414	37.91890601443913	0	0.9399999999999999	0	35.1384367214071	-9.754957428357079	-9.327638717328739	39.97477428252615	0.6976914289716353	0	0	0	35.1384367214071	-9.754957428357079	-9.327638717328739	39.97477428252615	0.6976914289716353	0	0	0	1.170493400616845	1.006169624963775	4.674013422811733	-0.3591766318725406	-6.314125345709823	-5.788200058317922	9.573770025265548	106.2527765136003	0	0	56.1543653510651	-30.86646000055538	-13.69672763808359	43.98270880947415	100.5746903911388	0	0
17.23999999999972	0.176951947811305	1.467490908154125	38.15028671233623	0	0.9399999999999999	0	35.14435814929547	-9.755458330542934	-9.328523130220553	39.98108859891583	0.6978016345826478	0	0	0	35.14435814929547	-9.755458330542934	-9.328523130220553	39.98108859891583	0.6978016345826478	0	0	0	1.146207510839294	0.9987402769379312	4.470223737889702	-0.3709392397460556	-6.35995167324546	-5.712276549685868	9.62622773754418	106.3748886089512	0	0	56.21222991399713	-30.73600273316016	-13.79700588816706	39.82182200114051	102.4412595531707	0	0
17.25999999999972	0.110291354324226	1.386377397709498	38.44515925906555	0	0.9399999999999999	0	35.21130208312406	-9.759395028465775	-9.336519090263176	40.07253331254715	0.6993976459190577	0	0	0	35.21130208312406	-9.759395028465775	-9.336519090263176	40.07253331254715	0.6993976459190577	0	0	0	1.044553433519921	0.9763092538101283	4.246915526892226	-0.2142499097671931	-6.347124658996399	-5.746366676614747	9.596458525996507	106.7284339801489	0	0	52.9634758743941	-31.16364516526046	-16.7149392191779	38.25785397636538	105.7877037748158	0	0
17.27999999999972	0.1190381428532812	1.373114976015531	38.90150539577778	0	0.9399999999999999	0	35.2175251000261	-9.759916520121543	-9.33744408062457	40.07916409513115	0.6995133749071324	0	0	0	35.2175251000261	-9.759916520121543	-9.33744408062457	40.07916409513115	0.6995133749071324	0	0	0	1.046517496620603	0.9463188764453213	4.087073745101319	-0.2865352242516727	-6.247418009301431	-5.960122764750936	9.58274426991691	107.1444388653778	0	0	53.10383394444793	-30.80267675881548	-16.63598474587374	33.42032642052708	109.097473194694	0	0
17.29999999999972	0.1157360800577706	1.380955470964066	39.55041639551956	0	0.9399999999999999	0	35.22996768715132	-9.760958940449649	-9.339295171508187	40.0923578146704	0.699743648753677	0	0	0	35.22996768715132	-9.760958940449649	-9.339295171508187	40.0923578146704	0.699743648753677	0	0	0	1.064784683899191	0.92452587340593	3.642738181263567	-0.3088243766242002	-6.219705675449346	-6.097403383096486	9.575313758386597	107.1261414665214	0	0	46.3640109850403	-31.46767074275384	-19.99205999967046	34.46222048528459	111.6840938972978	0	0
17.31999999999972	0.1581692947648858	1.412011110529529	39.89432775953739	0	0.9399999999999999	0	35.23620889871572	-9.761478205135582	-9.340219168384662	40.0990286314897	0.6998600764709713	0	0	0	35.23620889871572	-9.761478205135582	-9.340219168384662	40.0990286314897	0.6998600764709713	0	0	0	1.118077732972268	0.9145461071271543	3.481920847093466	-0.4374007638729708	-6.246062560303264	-6.25670056368929	9.556561861912854	107.5311217032015	0	0	46.35385867229863	-31.18796489548033	-20.0154374240258	29.56919825257971	115.2039864223276	0	0
